<svg width="110" height="110" viewBox="0 0 110 110" fill="none" xmlns="http://www.w3.org/2000/svg">
<g clip-path="url(#clip0_72_3412)">
<rect width="110" height="110" rx="55" fill="url(#paint0_linear_72_3412)"/>
<g opacity="0.6" filter="url(#filter0_d_72_3412)">
<path d="M93.5 40.6582C93.5 38.2027 94.8575 35.9485 97.0831 34.9112C102.793 32.2497 114.194 27.5 122.833 27.5C131.472 27.5 142.873 32.2497 148.584 34.9112C150.809 35.9485 152.167 38.2027 152.167 40.6582V88.7068C152.167 92.3665 149.2 95.3333 145.54 95.3333H100.127C96.4668 95.3333 93.5 92.3665 93.5 88.7068V40.6582Z" fill="url(#paint1_linear_72_3412)"/>
</g>
<g opacity="0.6" filter="url(#filter1_d_72_3412)">
<path d="M-42.1665 40.6582C-42.1665 38.2027 -40.809 35.9485 -38.5834 34.9112C-32.8731 32.2497 -21.4723 27.5 -12.8332 27.5C-4.19405 27.5 7.20676 32.2497 12.9171 34.9112C15.1427 35.9485 16.5002 38.2027 16.5002 40.6582V88.7068C16.5002 92.3665 13.5334 95.3333 9.87366 95.3333H-35.54C-39.1997 95.3333 -42.1665 92.3665 -42.1665 88.7068V40.6582Z" fill="url(#paint2_linear_72_3412)"/>
</g>
<g filter="url(#filter2_d_72_3412)">
<path d="M23.8335 32.0016C23.8335 29.5382 25.1936 27.2816 27.4275 26.2435C33.4204 23.4587 45.7124 18.333 55.0002 18.333C64.2879 18.333 76.5799 23.4587 82.5728 26.2435C84.8067 27.2816 86.1668 29.5382 86.1668 32.0016V83.2065C86.1668 86.8662 83.2 89.833 79.5403 89.833H30.46C26.8003 89.833 23.8335 86.8662 23.8335 83.2065V32.0016Z" fill="url(#paint3_linear_72_3412)"/>
<path d="M24.4961 32.0016C24.4961 29.781 25.7201 27.7677 27.7068 26.8445C30.6894 25.4585 35.2348 23.4923 40.1842 21.8738C45.1439 20.2519 50.4605 18.9957 55.0002 18.9957C59.5399 18.9957 64.8564 20.2519 69.8161 21.8738C74.7655 23.4923 79.3109 25.4585 82.2936 26.8445C84.2802 27.7677 85.5042 29.781 85.5042 32.0016V83.2065C85.5042 86.5003 82.8341 89.1704 79.5403 89.1704H30.46C27.1663 89.1704 24.4961 86.5002 24.4961 83.2065V32.0016Z" stroke="url(#paint4_linear_72_3412)" stroke-opacity="0.3" stroke-width="1.3253"/>
</g>
<path d="M72.9998 46.2V65.8C72.9998 66.9139 72.5621 67.9822 71.7831 68.7698C71.0041 69.5575 69.9476 70 68.8459 70H41.1536C40.0519 70 38.9954 69.5575 38.2164 68.7698C37.4374 67.9822 36.9998 66.9139 36.9998 65.8V46.2M72.9998 46.2C72.9998 45.0861 72.5621 44.0178 71.7831 43.2302C71.0041 42.4425 69.9476 42 68.8459 42H41.1536C40.0519 42 38.9954 42.4425 38.2164 43.2302C37.4374 44.0178 36.9998 45.0861 36.9998 46.2M72.9998 46.2V46.6536C72.9998 47.3707 72.8183 48.0758 72.4726 48.7019C72.1268 49.3279 71.6282 49.8541 71.0244 50.2301L57.1782 58.8448C56.5232 59.2527 55.769 59.4687 54.9998 59.4687C54.2305 59.4687 53.4763 59.2527 52.8213 58.8448L38.9751 50.232C38.3713 49.8559 37.8727 49.3298 37.527 48.7038C37.1812 48.0777 36.9997 47.3725 36.9998 46.6555V46.2" stroke="url(#paint5_linear_72_3412)" stroke-width="3.3" stroke-linecap="round" stroke-linejoin="round"/>
</g>
<rect x="1.3253" y="1.3253" width="107.349" height="107.349" rx="53.6747" stroke="url(#paint6_linear_72_3412)" stroke-width="2.6506"/>
<defs>
<filter id="filter0_d_72_3412" x="74.9458" y="14.247" width="95.7752" height="104.942" filterUnits="userSpaceOnUse" color-interpolation-filters="sRGB">
<feFlood flood-opacity="0" result="BackgroundImageFix"/>
<feColorMatrix in="SourceAlpha" type="matrix" values="0 0 0 0 0 0 0 0 0 0 0 0 0 0 0 0 0 0 127 0" result="hardAlpha"/>
<feOffset dy="5.30121"/>
<feGaussianBlur stdDeviation="9.27711"/>
<feComposite in2="hardAlpha" operator="out"/>
<feColorMatrix type="matrix" values="0 0 0 0 0 0 0 0 0 0 0 0 0 0 0 0 0 0 0.2 0"/>
<feBlend mode="normal" in2="BackgroundImageFix" result="effect1_dropShadow_72_3412"/>
<feBlend mode="normal" in="SourceGraphic" in2="effect1_dropShadow_72_3412" result="shape"/>
</filter>
<filter id="filter1_d_72_3412" x="-60.7207" y="14.247" width="95.7752" height="104.942" filterUnits="userSpaceOnUse" color-interpolation-filters="sRGB">
<feFlood flood-opacity="0" result="BackgroundImageFix"/>
<feColorMatrix in="SourceAlpha" type="matrix" values="0 0 0 0 0 0 0 0 0 0 0 0 0 0 0 0 0 0 127 0" result="hardAlpha"/>
<feOffset dy="5.30121"/>
<feGaussianBlur stdDeviation="9.27711"/>
<feComposite in2="hardAlpha" operator="out"/>
<feColorMatrix type="matrix" values="0 0 0 0 0 0 0 0 0 0 0 0 0 0 0 0 0 0 0.2 0"/>
<feBlend mode="normal" in2="BackgroundImageFix" result="effect1_dropShadow_72_3412"/>
<feBlend mode="normal" in="SourceGraphic" in2="effect1_dropShadow_72_3412" result="shape"/>
</filter>
<filter id="filter2_d_72_3412" x="5.27928" y="5.08" width="99.4417" height="108.608" filterUnits="userSpaceOnUse" color-interpolation-filters="sRGB">
<feFlood flood-opacity="0" result="BackgroundImageFix"/>
<feColorMatrix in="SourceAlpha" type="matrix" values="0 0 0 0 0 0 0 0 0 0 0 0 0 0 0 0 0 0 127 0" result="hardAlpha"/>
<feOffset dy="5.30121"/>
<feGaussianBlur stdDeviation="9.27711"/>
<feComposite in2="hardAlpha" operator="out"/>
<feColorMatrix type="matrix" values="0 0 0 0 0 0 0 0 0 0 0 0 0 0 0 0 0 0 0.2 0"/>
<feBlend mode="normal" in2="BackgroundImageFix" result="effect1_dropShadow_72_3412"/>
<feBlend mode="normal" in="SourceGraphic" in2="effect1_dropShadow_72_3412" result="shape"/>
</filter>
<linearGradient id="paint0_linear_72_3412" x1="55" y1="0" x2="55" y2="110" gradientUnits="userSpaceOnUse">
<stop stop-color="#33CFFF"/>
<stop offset="1" stop-color="#30B4DC"/>
</linearGradient>
<linearGradient id="paint1_linear_72_3412" x1="122.833" y1="36.6667" x2="122.833" y2="95.3333" gradientUnits="userSpaceOnUse">
<stop stop-color="#36C0E9"/>
<stop offset="1" stop-color="#61D6FA"/>
</linearGradient>
<linearGradient id="paint2_linear_72_3412" x1="-12.8332" y1="36.6667" x2="-12.8332" y2="95.3333" gradientUnits="userSpaceOnUse">
<stop stop-color="#36C0E9"/>
<stop offset="1" stop-color="#61D6FA"/>
</linearGradient>
<linearGradient id="paint3_linear_72_3412" x1="55.0002" y1="27.9952" x2="55.0002" y2="89.833" gradientUnits="userSpaceOnUse">
<stop stop-color="#36C0E9"/>
<stop offset="1" stop-color="#61D6FA"/>
</linearGradient>
<linearGradient id="paint4_linear_72_3412" x1="55.0002" y1="27.9952" x2="55.0002" y2="86.9344" gradientUnits="userSpaceOnUse">
<stop stop-color="white"/>
<stop offset="1" stop-color="white" stop-opacity="0"/>
</linearGradient>
<linearGradient id="paint5_linear_72_3412" x1="54.9998" y1="42" x2="54.9998" y2="89.04" gradientUnits="userSpaceOnUse">
<stop stop-color="white"/>
<stop offset="1" stop-color="white" stop-opacity="0"/>
</linearGradient>
<linearGradient id="paint6_linear_72_3412" x1="55" y1="-92.5833" x2="55" y2="116.417" gradientUnits="userSpaceOnUse">
<stop stop-color="white"/>
<stop offset="1" stop-color="white" stop-opacity="0"/>
</linearGradient>
<clipPath id="clip0_72_3412">
<rect width="110" height="110" rx="55" fill="white"/>
</clipPath>
</defs>
</svg>
