<svg width="110" height="110" viewBox="0 0 110 110" fill="none" xmlns="http://www.w3.org/2000/svg">
<g clip-path="url(#clip0_108_2269)">
<rect width="110" height="110" rx="55" fill="url(#paint0_linear_108_2269)"/>
<g filter="url(#filter0_d_108_2269)">
<path d="M80.8315 24C83.2948 24 85.5514 25.3601 86.5895 27.594C89.3743 33.5869 94.5 45.8789 94.5 55.1667C94.5 64.4544 89.3743 76.7465 86.5895 82.7393C85.5514 84.9732 83.2948 86.3333 80.8315 86.3333L-0.373507 86.3333C-4.03322 86.3333 -7 83.3665 -7 79.7068L-7 30.6265C-7 26.9668 -4.03321 24 -0.373489 24L80.8315 24Z" fill="url(#paint1_linear_108_2269)"/>
<path d="M80.8315 24.6627C83.052 24.6627 85.0654 25.8866 85.9885 27.8733C87.3745 30.8559 89.3407 35.4013 90.9592 40.3507C92.5811 45.3104 93.8373 50.627 93.8373 55.1667C93.8373 59.7064 92.5811 65.0229 90.9592 69.9826C89.3407 74.932 87.3745 79.4774 85.9885 82.4601C85.0654 84.4467 83.052 85.6707 80.8315 85.6707L-0.373507 85.6707C-3.66725 85.6707 -6.33735 83.0006 -6.33735 79.7068L-6.33735 30.6265C-6.33735 27.3328 -3.66724 24.6626 -0.373489 24.6626L80.8315 24.6627Z" stroke="url(#paint2_linear_108_2269)" stroke-opacity="0.3" stroke-width="1.3253"/>
</g>
<rect opacity="0.3" x="46" y="43" width="33" height="7" rx="3.5" fill="url(#paint3_linear_108_2269)"/>
<rect opacity="0.3" x="13" y="66" width="54" height="7" rx="3.5" fill="url(#paint4_linear_108_2269)"/>
<path d="M36.6958 41.5153V52.6174C36.6958 53.2483 36.4479 53.8534 36.0067 54.2996C35.5654 54.7457 34.967 54.9964 34.3429 54.9964H18.6571C18.0331 54.9964 17.4346 54.7457 16.9933 54.2996C16.5521 53.8534 16.3042 53.2483 16.3042 52.6174V41.5153M36.6958 41.5153C36.6958 40.8843 36.4479 40.2792 36.0067 39.833C35.5654 39.3869 34.967 39.1362 34.3429 39.1362H18.6571C18.0331 39.1362 17.4346 39.3869 16.9933 39.833C16.5521 40.2792 16.3042 40.8843 16.3042 41.5153M36.6958 41.5153V41.7722C36.6959 42.1784 36.593 42.5778 36.3972 42.9324C36.2013 43.287 35.9189 43.585 35.5769 43.7981L27.734 48.6777C27.3629 48.9088 26.9358 49.0311 26.5 49.0311C26.0643 49.0311 25.6371 48.9088 25.2661 48.6777L17.4231 43.7991C17.0811 43.5861 16.7987 43.2881 16.6028 42.9335C16.407 42.5788 16.3042 42.1794 16.3042 41.7732V41.5153" stroke="url(#paint5_linear_108_2269)" stroke-width="2.5" stroke-linecap="round" stroke-linejoin="round"/>
</g>
<rect x="1.3253" y="1.3253" width="107.349" height="107.349" rx="53.6747" stroke="url(#paint6_linear_108_2269)" stroke-width="2.6506"/>
<defs>
<filter id="filter0_d_108_2269" x="-25.5542" y="10.747" width="138.608" height="99.4419" filterUnits="userSpaceOnUse" color-interpolation-filters="sRGB">
<feFlood flood-opacity="0" result="BackgroundImageFix"/>
<feColorMatrix in="SourceAlpha" type="matrix" values="0 0 0 0 0 0 0 0 0 0 0 0 0 0 0 0 0 0 127 0" result="hardAlpha"/>
<feOffset dy="5.30121"/>
<feGaussianBlur stdDeviation="9.27711"/>
<feComposite in2="hardAlpha" operator="out"/>
<feColorMatrix type="matrix" values="0 0 0 0 0 0 0 0 0 0 0 0 0 0 0 0 0 0 0.2 0"/>
<feBlend mode="normal" in2="BackgroundImageFix" result="effect1_dropShadow_108_2269"/>
<feBlend mode="normal" in="SourceGraphic" in2="effect1_dropShadow_108_2269" result="shape"/>
</filter>
<linearGradient id="paint0_linear_108_2269" x1="55" y1="0" x2="55" y2="110" gradientUnits="userSpaceOnUse">
<stop stop-color="#33CFFF"/>
<stop offset="1" stop-color="#30B4DC"/>
</linearGradient>
<linearGradient id="paint1_linear_108_2269" x1="84.8378" y1="55.1667" x2="23" y2="55.1667" gradientUnits="userSpaceOnUse">
<stop stop-color="#36C0E9"/>
<stop offset="1" stop-color="#61D6FA"/>
</linearGradient>
<linearGradient id="paint2_linear_108_2269" x1="84.8378" y1="55.1667" x2="25.8986" y2="55.1667" gradientUnits="userSpaceOnUse">
<stop stop-color="white"/>
<stop offset="1" stop-color="white" stop-opacity="0"/>
</linearGradient>
<linearGradient id="paint3_linear_108_2269" x1="66.4457" y1="41" x2="54.6453" y2="58.3542" gradientUnits="userSpaceOnUse">
<stop stop-color="white"/>
<stop offset="0.79435" stop-color="white" stop-opacity="0.20565"/>
<stop offset="1" stop-color="white" stop-opacity="0"/>
</linearGradient>
<linearGradient id="paint4_linear_108_2269" x1="46.4565" y1="64" x2="37.4638" y2="85.6412" gradientUnits="userSpaceOnUse">
<stop stop-color="white"/>
<stop offset="0.79435" stop-color="white" stop-opacity="0.20565"/>
<stop offset="1" stop-color="white" stop-opacity="0"/>
</linearGradient>
<linearGradient id="paint5_linear_108_2269" x1="26.5" y1="39.1362" x2="26.5" y2="65.7813" gradientUnits="userSpaceOnUse">
<stop stop-color="white"/>
<stop offset="1" stop-color="white" stop-opacity="0"/>
</linearGradient>
<linearGradient id="paint6_linear_108_2269" x1="55" y1="-92.5833" x2="55" y2="116.417" gradientUnits="userSpaceOnUse">
<stop stop-color="white"/>
<stop offset="1" stop-color="white" stop-opacity="0"/>
</linearGradient>
<clipPath id="clip0_108_2269">
<rect width="110" height="110" rx="55" fill="white"/>
</clipPath>
</defs>
</svg>
