<svg width="49" height="49" viewBox="0 0 49 49" fill="none" xmlns="http://www.w3.org/2000/svg">
<rect x="0.583133" y="0.583133" width="47.2337" height="47.2337" rx="23.6169" fill="url(#paint0_linear_72_3121)"/>
<rect x="0.583133" y="0.583133" width="47.2337" height="47.2337" rx="23.6169" stroke="url(#paint1_linear_72_3121)" stroke-width="1.16627"/>
<path d="M30.0722 15.2349L32.0404 13.2655C32.4507 12.8553 33.0072 12.6248 33.5874 12.6248C34.1676 12.6248 34.7241 12.8553 35.1344 13.2655C35.5447 13.6758 35.7752 14.2323 35.7752 14.8125C35.7752 15.3928 35.5447 15.9493 35.1344 16.3595L18.3706 33.1234C17.7538 33.7398 16.9932 34.1929 16.1574 34.4417L13.0249 35.375L13.9582 32.2425C14.2071 31.4068 14.6601 30.6462 15.2766 30.0294L30.0734 15.2349H30.0722ZM30.0722 15.2349L33.1499 18.3125" stroke="url(#paint2_linear_72_3121)" stroke-width="2.2" stroke-linecap="round" stroke-linejoin="round"/>
<defs>
<linearGradient id="paint0_linear_72_3121" x1="24.2" y1="0" x2="24.2" y2="48.4" gradientUnits="userSpaceOnUse">
<stop stop-color="#008522"/>
<stop offset="1" stop-color="#1BA73F"/>
</linearGradient>
<linearGradient id="paint1_linear_72_3121" x1="24.2" y1="-40.7367" x2="24.2" y2="51.2233" gradientUnits="userSpaceOnUse">
<stop stop-color="white"/>
<stop offset="1" stop-color="white" stop-opacity="0"/>
</linearGradient>
<linearGradient id="paint2_linear_72_3121" x1="24.4" y1="12.6248" x2="24.4" y2="50.8452" gradientUnits="userSpaceOnUse">
<stop stop-color="white"/>
<stop offset="1" stop-color="white" stop-opacity="0"/>
</linearGradient>
</defs>
</svg>
