<svg width="20" height="21" viewBox="0 0 20 21" fill="none" xmlns="http://www.w3.org/2000/svg">
<path d="M13.125 8.42632V5.30132C13.125 4.80403 12.9275 4.32712 12.5758 3.97549C12.2242 3.62386 11.7473 3.42632 11.25 3.42632H6.25C5.75272 3.42632 5.27581 3.62386 4.92417 3.97549C4.57254 4.32712 4.375 4.80403 4.375 5.30132V16.5513C4.375 17.0486 4.57254 17.5255 4.92417 17.8771C5.27581 18.2288 5.75272 18.4263 6.25 18.4263H11.25C11.7473 18.4263 12.2242 18.2288 12.5758 17.8771C12.9275 17.5255 13.125 17.0486 13.125 16.5513V13.4263M15.625 13.4263L18.125 10.9263M18.125 10.9263L15.625 8.42632M18.125 10.9263H7.5" stroke="#DF1C41" stroke-width="1.5" stroke-linecap="round" stroke-linejoin="round"/>
</svg>
