<svg width="83" height="83" viewBox="0 0 83 83" fill="none" xmlns="http://www.w3.org/2000/svg">
<g clip-path="url(#clip0_19_1233)">
<rect width="83" height="83" rx="41.5" fill="url(#paint0_linear_19_1233)"/>
<g opacity="0.6" filter="url(#filter0_d_19_1233)">
<path d="M70.55 30.6784C70.55 28.8257 71.5743 27.1248 73.2537 26.3421C77.5623 24.3339 86.1648 20.75 92.6834 20.75C99.202 20.75 107.804 24.3339 112.113 26.3421C113.792 27.1248 114.817 28.8257 114.817 30.6784V66.9333C114.817 69.6948 112.578 71.9333 109.817 71.9333H75.55C72.7886 71.9333 70.55 69.6948 70.55 66.9333V30.6784Z" fill="url(#paint1_linear_19_1233)"/>
</g>
<g opacity="0.6" filter="url(#filter1_d_19_1233)">
<path d="M-31.8167 30.6784C-31.8167 28.8257 -30.7924 27.1248 -29.113 26.3421C-24.8043 24.3339 -16.2019 20.75 -9.68332 20.75C-3.16471 20.75 5.43771 24.3339 9.7464 26.3421C11.4257 27.1248 12.45 28.8257 12.45 30.6784V66.9333C12.45 69.6948 10.2114 71.9333 7.45002 71.9333H-26.8167C-29.5781 71.9333 -31.8167 69.6948 -31.8167 66.9333V30.6784Z" fill="url(#paint2_linear_19_1233)"/>
</g>
<g filter="url(#filter2_d_19_1233)">
<path d="M17.9833 24.1469C17.9833 22.2882 19.0095 20.5854 20.6951 19.8022C25.217 17.7009 34.4919 13.8333 41.4999 13.8333C48.508 13.8333 57.7829 17.7009 62.3048 19.8022C63.9903 20.5854 65.0166 22.2882 65.0166 24.1469V62.7833C65.0166 65.5447 62.778 67.7833 60.0166 67.7833H22.9833C20.2219 67.7833 17.9833 65.5447 17.9833 62.7833V24.1469Z" fill="url(#paint3_linear_19_1233)"/>
<path d="M18.4833 24.1469C18.4833 22.4713 19.4068 20.9522 20.9058 20.2556C23.1564 19.2098 26.5861 17.7262 30.3206 16.505C34.063 15.2812 38.0745 14.3333 41.4999 14.3333C44.9253 14.3333 48.9369 15.2812 52.6793 16.505C56.4138 17.7262 59.8435 19.2098 62.094 20.2556C63.5931 20.9522 64.5166 22.4713 64.5166 24.1469V62.7833C64.5166 65.2686 62.5019 67.2833 60.0166 67.2833H22.9833C20.498 67.2833 18.4833 65.2686 18.4833 62.7833V24.1469Z" stroke="url(#paint4_linear_19_1233)" stroke-opacity="0.3"/>
</g>
<path d="M45.9959 39.2521C45.9959 40.4445 45.5222 41.588 44.6791 42.4311C43.836 43.2743 42.6925 43.7479 41.5001 43.7479C40.3077 43.7479 39.1642 43.2743 38.321 42.4311C37.4779 41.588 37.0042 40.4445 37.0042 39.2521C37.0042 38.0597 37.4779 36.9162 38.321 36.0731C39.1642 35.2299 40.3077 34.7563 41.5001 34.7563C42.6925 34.7563 43.836 35.2299 44.6791 36.0731C45.5222 36.9162 45.9959 38.0597 45.9959 39.2521Z" stroke="url(#paint5_linear_19_1233)" stroke-width="2" stroke-linecap="round" stroke-linejoin="round"/>
<path d="M52.7397 39.2521C52.7397 49.9552 41.5001 56.1115 41.5001 56.1115C41.5001 56.1115 30.2605 49.9552 30.2605 39.2521C30.2605 36.2712 31.4447 33.4123 33.5525 31.3045C35.6603 29.1967 38.5192 28.0125 41.5001 28.0125C44.481 28.0125 47.3398 29.1967 49.4477 31.3045C51.5555 33.4123 52.7397 36.2712 52.7397 39.2521Z" stroke="url(#paint6_linear_19_1233)" stroke-width="2" stroke-linecap="round" stroke-linejoin="round"/>
</g>
<rect x="1" y="1" width="81" height="81" rx="40.5" stroke="url(#paint7_linear_19_1233)" stroke-width="2"/>
<defs>
<filter id="filter0_d_19_1233" x="56.55" y="10.75" width="72.2667" height="79.1833" filterUnits="userSpaceOnUse" color-interpolation-filters="sRGB">
<feFlood flood-opacity="0" result="BackgroundImageFix"/>
<feColorMatrix in="SourceAlpha" type="matrix" values="0 0 0 0 0 0 0 0 0 0 0 0 0 0 0 0 0 0 127 0" result="hardAlpha"/>
<feOffset dy="4"/>
<feGaussianBlur stdDeviation="7"/>
<feComposite in2="hardAlpha" operator="out"/>
<feColorMatrix type="matrix" values="0 0 0 0 0 0 0 0 0 0 0 0 0 0 0 0 0 0 0.2 0"/>
<feBlend mode="normal" in2="BackgroundImageFix" result="effect1_dropShadow_19_1233"/>
<feBlend mode="normal" in="SourceGraphic" in2="effect1_dropShadow_19_1233" result="shape"/>
</filter>
<filter id="filter1_d_19_1233" x="-45.8167" y="10.75" width="72.2667" height="79.1833" filterUnits="userSpaceOnUse" color-interpolation-filters="sRGB">
<feFlood flood-opacity="0" result="BackgroundImageFix"/>
<feColorMatrix in="SourceAlpha" type="matrix" values="0 0 0 0 0 0 0 0 0 0 0 0 0 0 0 0 0 0 127 0" result="hardAlpha"/>
<feOffset dy="4"/>
<feGaussianBlur stdDeviation="7"/>
<feComposite in2="hardAlpha" operator="out"/>
<feColorMatrix type="matrix" values="0 0 0 0 0 0 0 0 0 0 0 0 0 0 0 0 0 0 0.2 0"/>
<feBlend mode="normal" in2="BackgroundImageFix" result="effect1_dropShadow_19_1233"/>
<feBlend mode="normal" in="SourceGraphic" in2="effect1_dropShadow_19_1233" result="shape"/>
</filter>
<filter id="filter2_d_19_1233" x="3.98328" y="3.83331" width="75.0333" height="81.95" filterUnits="userSpaceOnUse" color-interpolation-filters="sRGB">
<feFlood flood-opacity="0" result="BackgroundImageFix"/>
<feColorMatrix in="SourceAlpha" type="matrix" values="0 0 0 0 0 0 0 0 0 0 0 0 0 0 0 0 0 0 127 0" result="hardAlpha"/>
<feOffset dy="4"/>
<feGaussianBlur stdDeviation="7"/>
<feComposite in2="hardAlpha" operator="out"/>
<feColorMatrix type="matrix" values="0 0 0 0 0 0 0 0 0 0 0 0 0 0 0 0 0 0 0.2 0"/>
<feBlend mode="normal" in2="BackgroundImageFix" result="effect1_dropShadow_19_1233"/>
<feBlend mode="normal" in="SourceGraphic" in2="effect1_dropShadow_19_1233" result="shape"/>
</filter>
<linearGradient id="paint0_linear_19_1233" x1="41.5" y1="0" x2="41.5" y2="83" gradientUnits="userSpaceOnUse">
<stop stop-color="#F99030"/>
<stop offset="1" stop-color="#D17623"/>
</linearGradient>
<linearGradient id="paint1_linear_19_1233" x1="92.6834" y1="27.6667" x2="92.6834" y2="71.9333" gradientUnits="userSpaceOnUse">
<stop stop-color="#FC9F49"/>
<stop offset="1" stop-color="#CE782A"/>
</linearGradient>
<linearGradient id="paint2_linear_19_1233" x1="-9.68332" y1="27.6667" x2="-9.68332" y2="71.9333" gradientUnits="userSpaceOnUse">
<stop stop-color="#FC9F49"/>
<stop offset="1" stop-color="#CE782A"/>
</linearGradient>
<linearGradient id="paint3_linear_19_1233" x1="41.4999" y1="21.1239" x2="41.4999" y2="67.7833" gradientUnits="userSpaceOnUse">
<stop stop-color="#FC9F49"/>
<stop offset="1" stop-color="#CE782A"/>
</linearGradient>
<linearGradient id="paint4_linear_19_1233" x1="41.4999" y1="21.1239" x2="41.4999" y2="65.5962" gradientUnits="userSpaceOnUse">
<stop stop-color="white"/>
<stop offset="1" stop-color="white" stop-opacity="0"/>
</linearGradient>
<linearGradient id="paint5_linear_19_1233" x1="41.5001" y1="28.0125" x2="41.5001" y2="75.2188" gradientUnits="userSpaceOnUse">
<stop stop-color="white"/>
<stop offset="1" stop-color="white" stop-opacity="0"/>
</linearGradient>
<linearGradient id="paint6_linear_19_1233" x1="41.5001" y1="28.0125" x2="41.5001" y2="75.2188" gradientUnits="userSpaceOnUse">
<stop stop-color="white"/>
<stop offset="1" stop-color="white" stop-opacity="0"/>
</linearGradient>
<linearGradient id="paint7_linear_19_1233" x1="41.5" y1="-69.8583" x2="41.5" y2="87.8417" gradientUnits="userSpaceOnUse">
<stop stop-color="white"/>
<stop offset="1" stop-color="white" stop-opacity="0"/>
</linearGradient>
<clipPath id="clip0_19_1233">
<rect width="83" height="83" rx="41.5" fill="white"/>
</clipPath>
</defs>
</svg>
