<svg width="12" height="14" viewBox="0 0 12 14" fill="none" xmlns="http://www.w3.org/2000/svg">
<path d="M11 8.5V6.75C11 6.15326 10.7629 5.58097 10.341 5.15901C9.91903 4.73705 9.34674 4.5 8.75 4.5H7.75C7.55109 4.5 7.36032 4.42098 7.21967 4.28033C7.07902 4.13968 7 3.94891 7 3.75V2.75C7 2.15326 6.76295 1.58097 6.34099 1.15901C5.91903 0.737053 5.34674 0.5 4.75 0.5H3.5M5 0.5H1.75C1.336 0.5 1 0.836 1 1.25V12.75C1 13.164 1.336 13.5 1.75 13.5H10.25C10.664 13.5 11 13.164 11 12.75V6.5C11 4.9087 10.3679 3.38258 9.24264 2.25736C8.11742 1.13214 6.5913 0.5 5 0.5Z" stroke="#116B97" stroke-linecap="round" stroke-linejoin="round"/>
</svg>
