<svg width="49" height="49" viewBox="0 0 49 49" fill="none" xmlns="http://www.w3.org/2000/svg">
<rect x="1.18323" y="0.583133" width="47.2337" height="47.2337" rx="23.6169" fill="url(#paint0_linear_94_399)"/>
<rect x="1.18323" y="0.583133" width="47.2337" height="47.2337" rx="23.6169" stroke="url(#paint1_linear_94_399)" stroke-width="1.16627"/>
<path d="M24.8 19.751V28.6487M29.2488 24.1999H20.3511M38.1466 24.1999C38.1466 25.9526 37.8014 27.6881 37.1306 29.3074C36.4599 30.9267 35.4768 32.398 34.2374 33.6373C32.9981 34.8767 31.5268 35.8598 29.9075 36.5305C28.2882 37.2013 26.5527 37.5465 24.8 37.5465C23.0473 37.5465 21.3117 37.2013 19.6924 36.5305C18.0732 35.8598 16.6018 34.8767 15.3625 33.6373C14.1232 32.398 13.14 30.9267 12.4693 29.3074C11.7986 27.6881 11.4534 25.9526 11.4534 24.1999C11.4534 20.6601 12.8595 17.2654 15.3625 14.7624C17.8655 12.2594 21.2602 10.8533 24.8 10.8533C28.3397 10.8533 31.7345 12.2594 34.2374 14.7624C36.7404 17.2654 38.1466 20.6601 38.1466 24.1999Z" stroke="url(#paint2_linear_94_399)" stroke-width="2.2" stroke-linecap="round" stroke-linejoin="round"/>
<defs>
<linearGradient id="paint0_linear_94_399" x1="24.8001" y1="0" x2="24.8001" y2="48.4" gradientUnits="userSpaceOnUse">
<stop stop-color="#008522"/>
<stop offset="1" stop-color="#1BA73F"/>
</linearGradient>
<linearGradient id="paint1_linear_94_399" x1="24.8001" y1="-40.7367" x2="24.8001" y2="51.2233" gradientUnits="userSpaceOnUse">
<stop stop-color="white"/>
<stop offset="1" stop-color="white" stop-opacity="0"/>
</linearGradient>
<linearGradient id="paint2_linear_94_399" x1="24.8" y1="10.8533" x2="24.8" y2="55.6978" gradientUnits="userSpaceOnUse">
<stop stop-color="white"/>
<stop offset="1" stop-color="white" stop-opacity="0"/>
</linearGradient>
</defs>
</svg>
