<svg width="110" height="110" viewBox="0 0 110 110" fill="none" xmlns="http://www.w3.org/2000/svg">
<g clip-path="url(#clip0_72_3705)">
<rect width="110" height="110" rx="55" fill="url(#paint0_linear_72_3705)"/>
<g opacity="0.6" filter="url(#filter0_d_72_3705)">
<path d="M93.5 40.6582C93.5 38.2027 94.8575 35.9485 97.0831 34.9112C102.793 32.2497 114.194 27.5 122.833 27.5C131.472 27.5 142.873 32.2497 148.584 34.9112C150.809 35.9485 152.167 38.2027 152.167 40.6582V88.7068C152.167 92.3665 149.2 95.3333 145.54 95.3333H100.127C96.4668 95.3333 93.5 92.3665 93.5 88.7068V40.6582Z" fill="url(#paint1_linear_72_3705)"/>
</g>
<g opacity="0.6" filter="url(#filter1_d_72_3705)">
<path d="M-42.1665 40.6582C-42.1665 38.2027 -40.809 35.9485 -38.5834 34.9112C-32.8731 32.2497 -21.4723 27.5 -12.8332 27.5C-4.19405 27.5 7.20676 32.2497 12.9171 34.9112C15.1427 35.9485 16.5002 38.2027 16.5002 40.6582V88.7068C16.5002 92.3665 13.5334 95.3333 9.87366 95.3333H-35.54C-39.1997 95.3333 -42.1665 92.3665 -42.1665 88.7068V40.6582Z" fill="url(#paint2_linear_72_3705)"/>
</g>
<g filter="url(#filter2_d_72_3705)">
<path d="M23.8335 32.0016C23.8335 29.5382 25.1936 27.2816 27.4275 26.2435C33.4204 23.4587 45.7124 18.333 55.0002 18.333C64.2879 18.333 76.5799 23.4587 82.5728 26.2435C84.8067 27.2816 86.1668 29.5382 86.1668 32.0016V83.2065C86.1668 86.8662 83.2 89.833 79.5403 89.833H30.46C26.8003 89.833 23.8335 86.8662 23.8335 83.2065V32.0016Z" fill="url(#paint3_linear_72_3705)"/>
<path d="M24.4961 32.0016C24.4961 29.781 25.7201 27.7677 27.7068 26.8445C30.6894 25.4585 35.2348 23.4923 40.1842 21.8738C45.1439 20.2519 50.4605 18.9957 55.0002 18.9957C59.5399 18.9957 64.8564 20.2519 69.8161 21.8738C74.7655 23.4923 79.3109 25.4585 82.2936 26.8445C84.2802 27.7677 85.5042 29.781 85.5042 32.0016V83.2065C85.5042 86.5003 82.8341 89.1704 79.5403 89.1704H30.46C27.1663 89.1704 24.4961 86.5002 24.4961 83.2065V32.0016Z" stroke="url(#paint4_linear_72_3705)" stroke-opacity="0.3" stroke-width="1.3253"/>
</g>
<path d="M60.9587 52.0213C60.9587 53.6016 60.3309 55.1171 59.2135 56.2345C58.0961 57.3519 56.5806 57.9797 55.0003 57.9797C53.4201 57.9797 51.9046 57.3519 50.7871 56.2345C49.6697 55.1171 49.042 53.6016 49.042 52.0213C49.042 50.4411 49.6697 48.9255 50.7871 47.8081C51.9046 46.6907 53.4201 46.063 55.0003 46.063C56.5806 46.063 58.0961 46.6907 59.2135 47.8081C60.3309 48.9255 60.9587 50.4411 60.9587 52.0213Z" stroke="url(#paint5_linear_72_3705)" stroke-width="3.3" stroke-linecap="round" stroke-linejoin="round"/>
<path d="M69.8962 52.0213C69.8962 66.2061 55.0003 74.3651 55.0003 74.3651C55.0003 74.3651 40.1045 66.2061 40.1045 52.0213C40.1045 48.0707 41.6739 44.2819 44.4674 41.4884C47.2609 38.6949 51.0497 37.1255 55.0003 37.1255C58.9509 37.1255 62.7398 38.6949 65.5333 41.4884C68.3268 44.2819 69.8962 48.0707 69.8962 52.0213Z" stroke="url(#paint6_linear_72_3705)" stroke-width="3.3" stroke-linecap="round" stroke-linejoin="round"/>
</g>
<rect x="1.3253" y="1.3253" width="107.349" height="107.349" rx="53.6747" stroke="url(#paint7_linear_72_3705)" stroke-width="2.6506"/>
<defs>
<filter id="filter0_d_72_3705" x="74.9458" y="14.247" width="95.7749" height="104.942" filterUnits="userSpaceOnUse" color-interpolation-filters="sRGB">
<feFlood flood-opacity="0" result="BackgroundImageFix"/>
<feColorMatrix in="SourceAlpha" type="matrix" values="0 0 0 0 0 0 0 0 0 0 0 0 0 0 0 0 0 0 127 0" result="hardAlpha"/>
<feOffset dy="5.30121"/>
<feGaussianBlur stdDeviation="9.27711"/>
<feComposite in2="hardAlpha" operator="out"/>
<feColorMatrix type="matrix" values="0 0 0 0 0 0 0 0 0 0 0 0 0 0 0 0 0 0 0.2 0"/>
<feBlend mode="normal" in2="BackgroundImageFix" result="effect1_dropShadow_72_3705"/>
<feBlend mode="normal" in="SourceGraphic" in2="effect1_dropShadow_72_3705" result="shape"/>
</filter>
<filter id="filter1_d_72_3705" x="-60.7207" y="14.247" width="95.7749" height="104.942" filterUnits="userSpaceOnUse" color-interpolation-filters="sRGB">
<feFlood flood-opacity="0" result="BackgroundImageFix"/>
<feColorMatrix in="SourceAlpha" type="matrix" values="0 0 0 0 0 0 0 0 0 0 0 0 0 0 0 0 0 0 127 0" result="hardAlpha"/>
<feOffset dy="5.30121"/>
<feGaussianBlur stdDeviation="9.27711"/>
<feComposite in2="hardAlpha" operator="out"/>
<feColorMatrix type="matrix" values="0 0 0 0 0 0 0 0 0 0 0 0 0 0 0 0 0 0 0.2 0"/>
<feBlend mode="normal" in2="BackgroundImageFix" result="effect1_dropShadow_72_3705"/>
<feBlend mode="normal" in="SourceGraphic" in2="effect1_dropShadow_72_3705" result="shape"/>
</filter>
<filter id="filter2_d_72_3705" x="5.27928" y="5.08" width="99.4419" height="108.608" filterUnits="userSpaceOnUse" color-interpolation-filters="sRGB">
<feFlood flood-opacity="0" result="BackgroundImageFix"/>
<feColorMatrix in="SourceAlpha" type="matrix" values="0 0 0 0 0 0 0 0 0 0 0 0 0 0 0 0 0 0 127 0" result="hardAlpha"/>
<feOffset dy="5.30121"/>
<feGaussianBlur stdDeviation="9.27711"/>
<feComposite in2="hardAlpha" operator="out"/>
<feColorMatrix type="matrix" values="0 0 0 0 0 0 0 0 0 0 0 0 0 0 0 0 0 0 0.2 0"/>
<feBlend mode="normal" in2="BackgroundImageFix" result="effect1_dropShadow_72_3705"/>
<feBlend mode="normal" in="SourceGraphic" in2="effect1_dropShadow_72_3705" result="shape"/>
</filter>
<linearGradient id="paint0_linear_72_3705" x1="55" y1="0" x2="55" y2="110" gradientUnits="userSpaceOnUse">
<stop stop-color="#DF1C41"/>
<stop offset="1" stop-color="#F35D7A"/>
</linearGradient>
<linearGradient id="paint1_linear_72_3705" x1="122.833" y1="36.6667" x2="122.833" y2="95.3333" gradientUnits="userSpaceOnUse">
<stop stop-color="#F56781"/>
<stop offset="1" stop-color="#EB526F"/>
</linearGradient>
<linearGradient id="paint2_linear_72_3705" x1="-12.8332" y1="36.6667" x2="-12.8332" y2="95.3333" gradientUnits="userSpaceOnUse">
<stop stop-color="#F56781"/>
<stop offset="1" stop-color="#EB526F"/>
</linearGradient>
<linearGradient id="paint3_linear_72_3705" x1="55.0002" y1="27.9952" x2="55.0002" y2="89.833" gradientUnits="userSpaceOnUse">
<stop stop-color="#F56781"/>
<stop offset="1" stop-color="#EB526F"/>
</linearGradient>
<linearGradient id="paint4_linear_72_3705" x1="55.0002" y1="27.9952" x2="55.0002" y2="86.9344" gradientUnits="userSpaceOnUse">
<stop stop-color="white"/>
<stop offset="1" stop-color="white" stop-opacity="0"/>
</linearGradient>
<linearGradient id="paint5_linear_72_3705" x1="55.0003" y1="37.1255" x2="55.0003" y2="99.688" gradientUnits="userSpaceOnUse">
<stop stop-color="white"/>
<stop offset="1" stop-color="white" stop-opacity="0"/>
</linearGradient>
<linearGradient id="paint6_linear_72_3705" x1="55.0003" y1="37.1255" x2="55.0003" y2="99.688" gradientUnits="userSpaceOnUse">
<stop stop-color="white"/>
<stop offset="1" stop-color="white" stop-opacity="0"/>
</linearGradient>
<linearGradient id="paint7_linear_72_3705" x1="55" y1="-92.5833" x2="55" y2="116.417" gradientUnits="userSpaceOnUse">
<stop stop-color="white"/>
<stop offset="1" stop-color="white" stop-opacity="0"/>
</linearGradient>
<clipPath id="clip0_72_3705">
<rect width="110" height="110" rx="55" fill="white"/>
</clipPath>
</defs>
</svg>
