<svg width="20" height="20" viewBox="0 0 20 20" fill="none" xmlns="http://www.w3.org/2000/svg">
<path d="M6.80802 9.25708C6.64677 8.96607 6.39375 8.737 6.08866 8.60583C5.78357 8.47466 5.4437 8.44882 5.12238 8.53236C4.80107 8.6159 4.51651 8.80409 4.31336 9.06739C4.11022 9.33069 4 9.6542 4 9.98714C4 10.3201 4.11022 10.6436 4.31336 10.9069C4.51651 11.1702 4.80107 11.3584 5.12238 11.4419C5.4437 11.5255 5.78357 11.4996 6.08866 11.3684C6.39375 11.2373 6.64677 11.0082 6.80802 10.7172M6.80802 9.25708C6.92788 9.47349 6.99648 9.72197 6.99648 9.98714C6.99648 10.2523 6.92788 10.5014 6.80802 10.7172M6.80802 9.25708L13.1783 5.70766M6.80802 10.7172L13.1783 14.2666M13.1783 5.70766C13.2717 5.88409 13.3992 6.04007 13.5534 6.16649C13.7076 6.29291 13.8854 6.38722 14.0764 6.44392C14.2674 6.50061 14.4677 6.51855 14.6656 6.49669C14.8636 6.47483 15.0552 6.41361 15.2293 6.3166C15.4034 6.21959 15.5565 6.08874 15.6796 5.9317C15.8027 5.77466 15.8933 5.59459 15.9462 5.402C15.9991 5.20942 16.0132 5.00819 15.9876 4.81009C15.9621 4.61198 15.8974 4.42097 15.7974 4.24822C15.6003 3.9078 15.278 3.65852 14.8996 3.55398C14.5212 3.44943 14.1171 3.49796 13.774 3.68913C13.4309 3.8803 13.1763 4.19885 13.0649 4.57631C12.9535 4.95376 12.9942 5.35999 13.1783 5.70766ZM13.1783 14.2666C13.0827 14.4392 13.022 14.629 12.9995 14.8251C12.977 15.0212 12.9933 15.2199 13.0474 15.4097C13.1015 15.5995 13.1923 15.7768 13.3147 15.9314C13.4371 16.086 13.5886 16.215 13.7607 16.3108C13.9327 16.4067 14.1219 16.4676 14.3175 16.4902C14.513 16.5127 14.7111 16.4964 14.9003 16.4421C15.0896 16.3879 15.2663 16.2968 15.4205 16.1741C15.5746 16.0513 15.7032 15.8993 15.7987 15.7267C15.9918 15.3782 16.0389 14.967 15.9297 14.5836C15.8204 14.2003 15.5639 13.8761 15.2164 13.6825C14.8689 13.4889 14.4589 13.4416 14.0767 13.5512C13.6945 13.6607 13.3713 13.9181 13.1783 14.2666Z" stroke="#666D80" stroke-width="1.5" stroke-linecap="round" stroke-linejoin="round"/>
</svg>
