<svg width="24" height="24" viewBox="0 0 24 24" fill="none" xmlns="http://www.w3.org/2000/svg">
<path d="M18.9791 19.8458C18.1639 18.7665 17.1092 17.8912 15.8981 17.2889C14.6871 16.6866 13.3527 16.3738 12.0001 16.375C10.6475 16.3738 9.31313 16.6866 8.10205 17.2889C6.89097 17.8912 5.83629 18.7665 5.0211 19.8458M18.9791 19.8458C20.5698 18.4309 21.6917 16.5658 22.1981 14.4979C22.7046 12.4301 22.5704 10.2571 21.8135 8.26722C21.0565 6.27735 19.7126 4.56457 17.9599 3.35605C16.2072 2.14752 14.1285 1.50034 11.9995 1.50034C9.87053 1.50034 7.79185 2.14752 6.03913 3.35605C4.28642 4.56457 2.94248 6.27735 2.18555 8.26722C1.42863 10.2571 1.29447 12.4301 1.80089 14.4979C2.3073 16.5658 3.43035 18.4309 5.0211 19.8458M18.9791 19.8458C17.0588 21.5587 14.5733 22.5037 12.0001 22.5C9.42646 22.5039 6.94171 21.559 5.0211 19.8458M15.5001 9.375C15.5001 10.3033 15.1313 11.1935 14.475 11.8499C13.8186 12.5063 12.9284 12.875 12.0001 12.875C11.0718 12.875 10.1816 12.5063 9.52522 11.8499C8.86885 11.1935 8.5001 10.3033 8.5001 9.375C8.5001 8.44674 8.86885 7.5565 9.52522 6.90013C10.1816 6.24375 11.0718 5.875 12.0001 5.875C12.9284 5.875 13.8186 6.24375 14.475 6.90013C15.1313 7.5565 15.5001 8.44674 15.5001 9.375Z" stroke="#008522" stroke-width="2" stroke-linecap="round" stroke-linejoin="round"/>
</svg>
