<svg width="12" height="14" viewBox="0 0 12 14" fill="none" xmlns="http://www.w3.org/2000/svg">
<path d="M7.82667 4.99998L7.596 11M4.404 11L4.17333 4.99998M10.8187 2.85998C11.0467 2.89465 11.2733 2.93131 11.5 2.97065M10.8187 2.85998L10.1067 12.1153C10.0776 12.4921 9.90738 12.8441 9.63001 13.1008C9.35265 13.3575 8.9886 13.5001 8.61067 13.5H3.38933C3.0114 13.5001 2.64735 13.3575 2.36999 13.1008C2.09262 12.8441 1.92239 12.4921 1.89333 12.1153L1.18133 2.85998M10.8187 2.85998C10.0492 2.74366 9.27584 2.65538 8.5 2.59531M1.18133 2.85998C0.953333 2.89398 0.726667 2.93065 0.5 2.96998M1.18133 2.85998C1.95076 2.74366 2.72416 2.65538 3.5 2.59531M8.5 2.59531V1.98465C8.5 1.19798 7.89333 0.541981 7.10667 0.517315C6.36908 0.49374 5.63092 0.49374 4.89333 0.517315C4.10667 0.541981 3.5 1.19865 3.5 1.98465V2.59531M8.5 2.59531C6.83581 2.4667 5.16419 2.4667 3.5 2.59531" stroke="#966422" stroke-linecap="round" stroke-linejoin="round"/>
</svg>
